<svg width="135" height="118" viewBox="0 0 135 118" fill="none" xmlns="http://www.w3.org/2000/svg">
<path d="M16.0014 0H118.999C121.083 0 122.832 0.708001 124.244 2.124C125.657 3.54 126.36 5.29033 126.356 7.375C126.351 9.45966 125.644 11.2125 124.237 12.6334C122.829 14.0543 121.083 14.7598 118.999 14.75H16.0014C13.9169 14.75 12.1708 14.042 10.7632 12.626C9.35559 11.21 8.64932 9.45966 8.64441 7.375C8.63951 5.29033 9.34578 3.54 10.7632 2.124C12.1807 0.708001 13.9267 0 16.0014 0ZM16.0014 118C13.9169 118 12.1708 117.292 10.7632 115.876C9.35559 114.46 8.64932 112.71 8.64441 110.625V73.75H7.35695C5.02725 73.75 3.1267 72.8576 1.65531 71.0729C0.183924 69.2881 -0.30654 67.2305 0.183924 64.9L7.54087 28.025C7.90872 26.3042 8.76703 24.8906 10.1158 23.7844C11.4646 22.6781 12.9973 22.125 14.7139 22.125H120.286C122.003 22.125 123.535 22.6781 124.884 23.7844C126.233 24.8906 127.091 26.3042 127.459 28.025L134.816 64.9C135.307 67.2354 134.816 69.293 133.345 71.0729C131.873 72.8527 129.973 73.7451 127.643 73.75H126.356V110.625C126.356 112.715 125.649 114.467 124.237 115.883C122.824 117.299 121.078 118.005 118.999 118C116.919 117.995 115.173 117.287 113.76 115.876C112.348 114.465 111.642 112.715 111.642 110.625V73.75H82.2139V110.625C82.2139 112.715 81.5076 114.467 80.0951 115.883C78.6826 117.299 76.9365 118.005 74.8569 118H16.0014ZM23.3583 103.25H67.5V73.75H23.3583V103.25Z" fill="black"/>
</svg>
