<svg width="135" height="135" viewBox="0 0 135 135" fill="none" xmlns="http://www.w3.org/2000/svg">
<path d="M63.225 60.7125C76.6041 60.7125 87.45 49.8666 87.45 36.4875C87.45 23.1084 76.6041 12.2625 63.225 12.2625C49.8459 12.2625 39 23.1084 39 36.4875C39 49.8666 49.8459 60.7125 63.225 60.7125Z" fill="black"/>
<path d="M78.75 105H105V110.25H78.75V105Z" fill="black"/>
<path d="M56.2505 112.5V123.75C56.2505 124.745 56.6455 125.698 57.3488 126.402C58.0521 127.105 59.0059 127.5 60.0005 127.5H123.75C124.745 127.5 125.699 127.105 126.402 126.402C127.105 125.698 127.5 124.745 127.5 123.75V86.25C127.5 85.2555 127.105 84.3016 126.402 83.5984C125.699 82.8951 124.745 82.5 123.75 82.5H97.5005V76.9875C97.5005 75.993 97.1054 75.0391 96.4021 74.3359C95.6989 73.6326 94.745 73.2375 93.7505 73.2375C92.7559 73.2375 91.8021 73.6326 91.0988 74.3359C90.3955 75.0391 90.0005 75.993 90.0005 76.9875V82.5H82.5005V69.075C76.1283 68.0323 69.6824 67.5056 63.2255 67.5C48.986 67.4395 34.906 70.4986 21.9755 76.4625C19.8473 77.4668 18.0519 79.0606 16.8022 81.0546C15.5526 83.0487 14.9013 85.3594 14.9255 87.7125V112.5H56.2505ZM120 120H63.7505V90H90.0005V91.575C90.0005 92.5696 90.3955 93.5234 91.0988 94.2267C91.8021 94.9299 92.7559 95.325 93.7505 95.325C94.745 95.325 95.6989 94.9299 96.4021 94.2267C97.1054 93.5234 97.5005 92.5696 97.5005 91.575V90H120V120Z" fill="black"/>
</svg>
