<svg width="114" height="113" viewBox="0 0 114 113" fill="none" xmlns="http://www.w3.org/2000/svg">
<path d="M90.625 90.25C84.3812 90.25 79.375 95.2562 79.375 101.5C79.375 104.484 80.5603 107.345 82.6701 109.455C84.7798 111.565 87.6413 112.75 90.625 112.75C93.6087 112.75 96.4702 111.565 98.5799 109.455C100.69 107.345 101.875 104.484 101.875 101.5C101.875 98.5163 100.69 95.6548 98.5799 93.5451C96.4702 91.4353 93.6087 90.25 90.625 90.25ZM0.625 0.25V11.5H11.875L32.125 54.1938L24.475 67.975C23.6312 69.55 23.125 71.4063 23.125 73.375C23.125 76.3587 24.3103 79.2202 26.42 81.3299C28.5298 83.4397 31.3913 84.625 34.375 84.625H101.875V73.375H36.7375C36.3645 73.375 36.0069 73.2268 35.7431 72.9631C35.4794 72.6994 35.3313 72.3417 35.3313 71.9688C35.3313 71.6875 35.3875 71.4625 35.5 71.2938L40.5625 62.125H82.4688C86.6875 62.125 90.4 59.7625 92.3125 56.3313L112.45 19.9375C112.844 19.0375 113.125 18.0813 113.125 17.125C113.125 15.6332 112.532 14.2024 111.477 13.1475C110.423 12.0926 108.992 11.5 107.5 11.5H24.3063L19.0187 0.25M34.375 90.25C28.1312 90.25 23.125 95.2562 23.125 101.5C23.125 104.484 24.3103 107.345 26.42 109.455C28.5298 111.565 31.3913 112.75 34.375 112.75C37.3587 112.75 40.2202 111.565 42.3299 109.455C44.4397 107.345 45.625 104.484 45.625 101.5C45.625 98.5163 44.4397 95.6548 42.3299 93.5451C40.2202 91.4353 37.3587 90.25 34.375 90.25Z" fill="black"/>
</svg>
