<svg width="136" height="136" viewBox="0 0 136 136" fill="none" xmlns="http://www.w3.org/2000/svg">
<path d="M60.7841 17.073V43.9343C60.7841 46.1585 60.3446 48.3607 59.491 50.4147C58.6373 52.4687 57.3862 54.334 55.8094 55.9035C54.2327 57.4729 52.3614 58.7158 50.3028 59.5606C48.2443 60.4054 46.0391 60.8356 43.8139 60.8265H17.0771C14.8579 60.84 12.6587 60.4054 10.6115 59.5489C8.56434 58.6924 6.71126 57.4315 5.16337 55.8419C3.59183 54.2843 2.34731 52.4286 1.50281 50.3839C0.658318 48.3391 0.23085 46.1464 0.24548 43.9343V17.1422C0.245443 12.6741 2.01656 8.38794 5.17113 5.22202C8.32571 2.0561 12.6067 0.268312 17.0771 0.25H43.8831C46.1001 0.252129 48.2946 0.693784 50.3396 1.5494C52.3846 2.40501 54.2395 3.65758 55.7969 5.23458C57.3726 6.7783 58.6251 8.62011 59.4813 10.6526C60.3376 12.6851 60.7804 14.8676 60.7841 17.073ZM135.245 17.1422V43.9343C135.209 48.3914 133.426 52.6567 130.28 55.8149C127.133 58.973 122.873 60.7723 118.413 60.8265H91.5382C87.0581 60.7991 82.7629 59.0373 79.5552 55.9112C77.9877 54.3361 76.7466 52.4675 75.9027 50.4123C75.0588 48.3572 74.6288 46.1558 74.6373 43.9343V17.1422C74.6317 14.9252 75.07 12.7296 75.9266 10.6845C76.7831 8.63949 78.0404 6.78646 79.6244 5.23458C81.1818 3.65758 83.0367 2.40501 85.0817 1.5494C87.1267 0.693784 89.3212 0.252129 91.5382 0.25H118.344C122.815 0.286187 127.093 2.07751 130.255 5.2376C133.417 8.3977 135.209 12.6733 135.245 17.1422ZM135.245 91.5648V118.357C135.209 122.814 133.426 127.079 130.28 130.237C127.133 133.396 122.873 135.195 118.413 135.249H91.5382C87.0295 135.295 82.6808 133.581 79.4166 130.472C77.843 128.902 76.5978 127.034 75.7535 124.978C74.9091 122.922 74.4826 120.718 74.4987 118.495V91.7032C74.4932 89.4863 74.9315 87.2906 75.788 85.2456C76.6445 83.2005 77.9018 81.3475 79.4859 79.7956C81.0433 78.2186 82.8982 76.9661 84.9432 76.1104C86.9882 75.2548 89.1827 74.8132 91.3997 74.811H118.206C122.677 74.8472 126.955 76.6386 130.116 79.7986C133.278 82.9587 135.07 87.2343 135.107 91.7032L135.245 91.5648ZM60.7841 91.634V118.426C60.7296 122.895 58.9198 127.163 55.7451 130.31C52.5704 133.457 48.2852 135.231 43.8139 135.249H17.0771C14.8642 135.258 12.6714 134.829 10.6251 133.987C8.57887 133.145 6.71972 131.906 5.15493 130.342C3.59014 128.778 2.35067 126.92 1.50805 124.875C0.665425 122.83 0.236317 120.638 0.24548 118.426V91.634C0.263325 87.1649 2.03803 82.882 5.18681 79.7089C8.33558 76.5359 12.6061 74.727 17.0771 74.6726H43.8831C48.373 74.7185 52.6694 76.5057 55.8662 79.6572C59.0253 82.8425 60.7936 87.1489 60.7841 91.634Z" fill="black"/>
</svg>
