<svg width="135" height="135" viewBox="0 0 135 135" fill="none" xmlns="http://www.w3.org/2000/svg">
<path fill-rule="evenodd" clip-rule="evenodd" d="M98.4825 24.4736C89.8863 18.2865 79.6343 14.8155 69.0475 14.5077C58.4607 14.1999 48.0243 17.0695 39.0832 22.7467C30.142 28.4239 23.1058 36.6485 18.8812 46.3608C14.6567 56.073 13.4374 66.8278 15.3804 77.2393C15.7005 79.1098 15.2726 81.0312 14.1889 82.5891C13.1052 84.147 11.4527 85.2165 9.58759 85.567C7.72252 85.9175 5.79442 85.5209 4.21913 84.4627C2.64384 83.4045 1.54759 81.7695 1.16681 79.9104C-1.34606 66.4621 0.287503 52.5676 5.85096 40.0688C11.4144 27.5701 20.645 17.0572 32.3192 9.92386C43.9934 2.7905 57.5599 -0.626491 71.2202 0.12583C84.8806 0.87815 97.9898 5.76426 108.81 14.1365L114.711 8.23503C115.385 7.55958 116.244 7.09919 117.18 6.91214C118.115 6.72508 119.085 6.81976 119.967 7.1842C120.848 7.54864 121.602 8.16644 122.133 8.95943C122.663 9.75242 122.946 10.6849 122.946 11.639V33.75C122.946 35.0288 122.438 36.2551 121.534 37.1593C120.63 38.0635 119.404 38.5715 118.125 38.5715H96.014C95.0619 38.5694 94.1318 38.2854 93.3409 37.7555C92.55 37.2256 91.9336 36.4734 91.5696 35.5937C91.2056 34.714 91.1101 33.7462 91.2952 32.8123C91.4804 31.8785 91.9379 31.0203 92.61 30.3461L98.4825 24.4736ZM125.396 49.3232C127.281 48.9678 129.229 49.3756 130.814 50.457C132.398 51.5384 133.487 53.2048 133.843 55.0897C136.358 68.5396 134.725 82.4363 129.162 94.9371C123.598 107.438 114.366 117.952 102.69 125.086C91.0136 132.22 77.4449 135.637 63.7826 134.883C50.1204 134.128 37.0101 129.239 26.19 120.864L20.2886 126.775C19.6143 127.451 18.7544 127.911 17.818 128.098C16.8816 128.285 15.9108 128.189 15.0288 127.824C14.1467 127.458 13.3931 126.839 12.8634 126.044C12.3337 125.25 12.0519 124.316 12.0536 123.361V101.25C12.0536 99.9713 12.5616 98.745 13.4658 97.8408C14.37 96.9366 15.5963 96.4286 16.875 96.4286H38.9861C39.9409 96.4269 40.8748 96.7087 41.6693 97.2384C42.4637 97.7681 43.083 98.5217 43.4487 99.4038C43.8143 100.286 43.9098 101.257 43.723 102.193C43.5363 103.129 43.0757 103.989 42.3997 104.664L36.5175 110.536C45.1138 116.723 55.3658 120.194 65.9526 120.502C76.5394 120.81 86.9758 117.94 95.9169 112.263C104.858 106.586 111.894 98.3612 116.119 88.649C120.343 78.9367 121.563 68.1819 119.62 57.7704C119.444 56.8358 119.454 55.8756 119.65 54.945C119.846 54.0143 120.223 53.1314 120.76 52.3468C121.298 51.5621 121.985 50.8912 122.782 50.3724C123.579 49.8536 124.47 49.4971 125.405 49.3232H125.396ZM73.5461 35.264C73.5461 33.3459 72.7841 31.5063 71.4279 30.1501C70.0716 28.7938 68.232 28.0318 66.314 28.0318C64.3959 28.0318 62.5564 28.7938 61.2001 30.1501C59.8438 31.5063 59.0818 33.3459 59.0818 35.264V38.5715C55.3119 39.1952 51.8772 41.1134 49.3687 43.996C46.8602 46.8785 45.4349 50.5453 45.3378 54.3652C45.2408 58.1852 46.4781 61.9196 48.837 64.9258C51.1959 67.932 54.5287 70.0221 58.2622 70.8365L70.4122 73.4882C71.1327 73.671 71.763 74.1077 72.1873 74.718C72.6115 75.3284 72.8012 76.0714 72.7214 76.8104C72.6417 77.5494 72.2978 78.2348 71.7531 78.7406C71.2084 79.2463 70.4994 79.5385 69.7565 79.5633H62.8715C62.2377 79.5608 61.6201 79.3633 61.1025 78.9976C60.5849 78.6318 60.1925 78.1155 59.9786 77.519C59.662 76.623 59.1721 75.7983 58.5367 75.0917C57.9014 74.3851 57.1331 73.8106 56.2758 73.4009C55.4184 72.9913 54.4887 72.7545 53.5399 72.7041C52.591 72.6538 51.6415 72.7908 50.7456 73.1074C49.8496 73.4239 49.0249 73.9139 48.3183 74.5492C47.6117 75.1846 47.0372 75.9528 46.6275 76.8102C46.2179 77.6676 45.9811 78.5972 45.9307 79.5461C45.8804 80.495 46.0174 81.4445 46.334 82.3404C47.3261 85.1469 49.0159 87.6549 51.2443 89.6286C53.4726 91.6022 56.1664 92.9766 59.0722 93.6225V97.1133C59.0722 99.0313 59.8341 100.871 61.1904 102.227C62.5467 103.583 64.3862 104.345 66.3043 104.345C68.2224 104.345 70.0619 103.583 71.4182 102.227C72.7745 100.871 73.5365 99.0313 73.5365 97.1133V93.6225C77.4317 92.7495 80.9129 90.5747 83.4057 87.4569C85.8985 84.339 87.2539 80.4645 87.2483 76.4727C87.2427 72.4808 85.8764 68.6101 83.3748 65.4993C80.8732 62.3885 77.3859 60.2235 73.4882 59.3615L61.3382 56.7C60.8668 56.5937 60.451 56.3176 60.1701 55.9242C59.8893 55.5309 59.763 55.048 59.8155 54.5676C59.868 54.0871 60.0954 53.6428 60.4545 53.3194C60.8136 52.996 61.2793 52.816 61.7625 52.814H69.7468C70.3806 52.8164 70.9982 53.0139 71.5158 53.3797C72.0334 53.7454 72.4258 54.2617 72.6397 54.8582C73.279 56.6676 74.611 58.1489 76.3425 58.9763C77.1999 59.3859 78.1295 59.6227 79.0784 59.6731C80.0273 59.7234 80.9768 59.5864 81.8727 59.2699C82.7686 58.9533 83.5934 58.4633 84.3 57.828C85.0066 57.1927 85.5811 56.4244 85.9907 55.567C86.4004 54.7096 86.6372 53.78 86.6875 52.8311C86.7379 51.8822 86.6009 50.9327 86.2843 50.0368C85.2913 47.2291 83.6001 44.7203 81.3699 42.7466C79.1398 40.7729 76.444 39.3991 73.5365 38.7547V35.2832L73.5461 35.264Z" fill="black"/>
</svg>
