<svg width="95" height="99" viewBox="0 0 95 99" fill="none" xmlns="http://www.w3.org/2000/svg">
<path d="M91.8584 22.7711C92.179 22.7093 92.5671 22.6699 92.8652 22.6249C93.2579 22.617 93.6457 22.712 93.9902 22.9005C94.0482 22.9326 94.1143 22.9472 94.1804 22.9426C94.2465 22.938 94.3098 22.9143 94.3628 22.8745C94.4157 22.8346 94.456 22.7803 94.4787 22.718C94.5015 22.6557 94.5057 22.5882 94.4909 22.5236C94.3784 22.1693 94.2152 21.7474 94.1252 21.4549C94.0839 21.3269 94.0106 21.2117 93.9121 21.1201C93.8136 21.0285 93.6933 20.9637 93.5627 20.9318C93.4084 20.8981 93.2737 20.8045 93.1883 20.6717C93.1029 20.5388 93.0737 20.3774 93.1071 20.223C93.1576 20.0042 93.2513 19.7977 93.3827 19.6155C93.7761 19.1131 94.052 18.529 94.1902 17.9061C94.3284 17.2831 94.3255 16.6372 94.1815 16.0155C93.9827 15.4133 93.5863 14.8959 93.0565 14.5474C93.003 14.5154 92.957 14.4723 92.9217 14.4209C92.8864 14.3696 92.8625 14.3112 92.8519 14.2498C92.8412 14.1883 92.8439 14.1254 92.8598 14.0651C92.8757 14.0048 92.9044 13.9487 92.944 13.9005C93.099 13.6876 93.1853 13.4325 93.1915 13.1693C93.1723 12.603 93.0582 12.044 92.854 11.5155C92.8007 11.2028 92.8007 10.8833 92.854 10.5705C92.944 10.1318 92.3702 9.86177 92.3702 9.86177C92.3702 9.86177 92.8034 9.40052 92.3702 8.47802C91.9371 7.55552 88.9952 7.26865 88.9952 7.26865C88.9952 7.26865 89.4283 5.38427 87.0546 4.45615C85.1365 3.7249 83.6065 6.70615 83.0834 7.92677C83.0142 8.07211 82.8968 8.18904 82.7512 8.25773C82.6056 8.32643 82.4408 8.34265 82.2846 8.30365C82.2044 8.29452 82.128 8.26397 82.0637 8.21519C81.9993 8.16641 81.9492 8.1012 81.9187 8.02641C81.8882 7.95162 81.8784 7.87 81.8904 7.79012C81.9023 7.71023 81.9355 7.63503 81.9865 7.5724L83.5615 5.88489C83.6295 5.80973 83.6785 5.71926 83.7041 5.62114C83.7297 5.52303 83.7312 5.42019 83.7086 5.32135C83.686 5.22251 83.6398 5.13059 83.574 5.05341C83.5083 4.97623 83.4249 4.91606 83.3309 4.87802L83.1508 4.79365L83.2409 4.75427C83.5735 4.6393 83.8468 4.39696 84.0008 4.08052C84.1548 3.76409 84.1768 3.39946 84.0621 3.06677V3.06114C83.9966 2.8751 83.8912 2.70566 83.7532 2.56475C83.6152 2.42384 83.448 2.31487 83.2634 2.24552L82.9371 2.11614C82.6022 1.97982 82.327 1.72851 82.1609 1.4074L81.9134 0.90677C81.7677 0.639774 81.5478 0.420673 81.2803 0.275936C81.0128 0.131199 80.7091 0.0670185 80.4059 0.0911454C78.5119 0.258233 76.7345 1.07731 75.3771 2.40865C72.5027 5.04677 70.489 16.6005 70.1458 18.8786C70.1039 19.1441 69.9868 19.392 69.8083 19.593C69.5083 19.953 69.0059 20.5249 68.3009 21.3086C65.6816 24.07 62.3605 26.0669 58.6934 27.0855C54.4004 27.5977 50.0791 27.8345 45.7558 27.7943C41.2545 27.8294 36.7832 27.0579 32.554 25.5161C29.5277 23.7499 26.9459 14.5699 23.4977 11.1611C21.0249 8.89832 18.0007 7.32514 14.7284 6.59927C14.0973 6.47151 13.4501 6.44304 12.8102 6.51489C12.7316 6.52582 12.6515 6.51465 12.5789 6.48264C12.5063 6.45063 12.4441 6.39904 12.3991 6.33365C12.3542 6.26827 12.3283 6.19166 12.3244 6.1124C12.3205 6.03314 12.3388 5.95437 12.3771 5.88489C12.534 5.63724 12.6713 5.3777 12.7877 5.10864C12.8327 4.83864 12.3996 4.16927 12.3996 4.16927L11.6234 3.53927L11.3027 3.10052L10.4309 2.83052L10.2734 2.72365C10.2232 2.69759 10.1682 2.68231 10.1119 2.67879C10.0555 2.67526 9.99899 2.68356 9.94602 2.70316C9.89305 2.72276 9.84476 2.75323 9.80426 2.7926C9.76376 2.83197 9.73194 2.87937 9.71085 2.93177L9.45773 3.66865C9.45773 3.66865 8.89523 2.54365 8.51835 2.72365C7.90523 3.03865 8.51835 4.69239 8.51835 4.69239C8.51835 4.69239 7.39335 2.80802 6.76335 3.10052C5.63835 3.60677 6.98835 6.03114 6.98835 6.03114C6.98835 6.03114 6.1446 4.54615 5.55398 4.77677C5.25585 4.87802 5.55398 6.74552 5.55398 6.74552C5.55398 6.74552 4.94085 6.53177 4.71023 6.63865C4.4796 6.74552 4.96335 8.20802 4.96335 8.20802H4.24335C4.14969 8.20562 4.05762 8.23251 3.97998 8.28495C3.90233 8.33738 3.84299 8.41274 3.81023 8.50052L3.72023 8.75365L3.3096 9.08552C3.1471 9.21942 3.02335 9.39433 2.95115 9.59213C2.87896 9.78992 2.86094 10.0034 2.89898 10.2105L2.98898 10.6943L2.87085 11.1949L2.92148 11.7574C2.27071 12.2364 1.67963 12.7916 1.16085 13.4111C0.695496 14.1857 0.464922 15.0787 0.497103 15.9818C0.765369 15.671 1.11357 15.4395 1.50398 15.3124L2.57835 14.7499C3.23905 14.413 3.9855 14.2818 4.72148 14.373H6.07148C5.78693 15.0192 5.59746 15.7032 5.50898 16.4036C5.50905 16.8728 5.61137 17.3364 5.80882 17.762C6.00628 18.1876 6.29412 18.5651 6.65231 18.8681C7.0105 19.1711 7.43043 19.3925 7.88287 19.5167C8.33531 19.6409 8.80939 19.665 9.2721 19.5874C9.72265 19.526 10.1537 19.3642 10.5334 19.114C10.913 18.8638 11.2317 18.5316 11.4659 18.1418C9.59221 22.0351 8.37216 26.2103 7.8546 30.4999C7.12363 37.1554 8.97836 43.8372 13.0352 49.1636C19.5715 57.4999 29.3927 59.5868 31.7496 61.2799C34.1065 62.973 37.2284 66.4718 39.4221 67.6418C41.3627 68.688 44.1752 71.7424 47.2577 74.1105C48.3735 75.0426 49.5839 75.8551 50.869 76.5349C49.9808 80.5112 48.7345 84.399 47.1452 88.1505C47.0024 88.4453 46.7713 88.6883 46.484 88.8456C46.1966 89.0028 45.8674 89.0666 45.5421 89.028C43.9794 88.8774 42.4081 88.8361 40.8396 88.9043C39.7923 89.0913 38.7721 89.4068 37.8021 89.8436C37.5715 89.928 37.6671 90.2205 37.8921 90.2205C38.9665 90.2205 40.609 90.2205 41.2277 90.2824C41.2277 90.2824 42.4596 90.6593 42.4821 90.6593C42.3021 90.6593 40.7946 90.7043 40.5415 90.7268C38.2314 90.8735 35.9388 91.2236 33.6902 91.773C33.6461 91.7877 33.6084 91.8171 33.5835 91.8562C33.5585 91.8954 33.5477 91.942 33.553 91.9881C33.5583 92.0343 33.5792 92.0773 33.6124 92.1098C33.6456 92.1423 33.689 92.1624 33.7352 92.1668C34.8602 92.2736 37.0259 92.4818 37.9821 92.628C39.4221 92.8586 40.0184 93.5505 41.5259 93.8205C40.9797 94.187 40.3973 94.4961 39.7877 94.743C39.0565 94.9118 38.0327 96.6274 37.414 97.758C37.324 97.9211 37.5265 98.1124 37.7346 98.028C39.0115 97.3586 41.8465 95.8511 42.1896 95.7274C44.4788 94.7423 46.8768 94.0323 49.3334 93.6124C49.4965 93.573 49.7721 93.5055 50.2277 92.7968C51.4596 92.9655 52.8321 93.1961 53.9515 93.4043C53.4073 93.7724 52.8245 94.0799 52.2134 94.3211C51.4821 94.4899 50.5259 96.1436 49.8621 97.2968C49.8439 97.3399 49.8399 97.3878 49.8508 97.4334C49.8618 97.4789 49.887 97.5198 49.9229 97.55C49.9587 97.5802 50.0033 97.5981 50.05 97.6011C50.0968 97.6041 50.1433 97.5921 50.1827 97.5668C51.3077 96.9199 53.4002 95.6824 54.3171 95.2043C56.7194 94.3003 59.2044 93.6334 61.7365 93.213C61.9221 93.1736 62.2652 93.0668 62.8615 91.998C63.0735 91.6291 63.417 91.3538 63.8234 91.2274C64.5943 90.9278 65.399 90.7238 66.2196 90.6199C66.7259 91.1824 68.3684 91.1824 69.0996 91.143H69.5777C69.6048 91.1439 69.6316 91.1369 69.6548 91.1229C69.6781 91.1089 69.6967 91.0885 69.7086 91.0641C69.7205 91.0397 69.7251 91.0125 69.7218 90.9855C69.7186 90.9586 69.7076 90.9332 69.6902 90.9124L69.3752 90.5805C69.3752 90.5355 68.5709 89.7199 67.9802 89.1574C66.8251 88.705 65.5843 88.513 64.3465 88.5949C64.8752 87.1718 65.5109 85.3493 66.2196 82.9024C66.8834 80.8099 67.4796 78.6949 67.9577 76.8555C70.6006 75.5701 72.6629 73.3371 73.7346 70.6005C75.5817 69.2899 77.142 67.6162 78.32 65.6818C79.4981 63.7475 80.2691 61.5931 80.5859 59.3505C80.1569 54.731 79.0579 50.1985 77.3234 45.8955C79.8083 45.5581 82.2169 44.797 84.4446 43.6455C87.1611 41.1236 88.8532 37.6893 89.1977 33.9986C89.4151 32.0679 89.5071 30.1251 89.4734 28.1824C89.4949 27.9736 89.5691 27.7737 89.6892 27.6015C89.8092 27.4293 89.9711 27.2904 90.1596 27.198C90.4516 27.0724 90.7274 26.9118 90.9809 26.7199C91.9169 26.3861 92.8834 26.1449 93.8665 25.9999C93.9298 25.995 93.9909 25.9741 94.044 25.9393C94.0971 25.9045 94.1405 25.8568 94.1703 25.8006C94.2 25.7445 94.2151 25.6818 94.2141 25.6183C94.2131 25.5548 94.1961 25.4926 94.1646 25.4374C93.8417 24.9923 93.4484 24.6029 93.0002 24.2843L91.6727 23.4068C91.6182 23.362 91.5781 23.3022 91.5573 23.2348C91.5364 23.1674 91.5359 23.0954 91.5557 23.0277C91.5754 22.96 91.6147 22.8995 91.6685 22.8539C91.7223 22.8083 91.7883 22.7795 91.8584 22.7711ZM59.8746 88.1055C59.6496 88.6118 58.7496 88.6118 58.1421 88.5668C56.5343 88.3863 54.9139 88.3449 53.299 88.443C52.67 88.4979 52.0447 88.5881 51.4259 88.713C51.9265 87.3349 54.7165 78.273 55.2621 76.2199C56.7585 75.5042 58.181 74.6432 59.509 73.6493C61.1121 72.1643 61.2471 71.4274 61.2471 71.4274C61.5627 73.17 62.4564 74.7553 63.784 75.9274C62.8505 80.0963 61.5421 84.1723 59.8746 88.1055Z" fill="black"/>
</svg>
