<svg width="119" height="107" viewBox="0 0 119 107" fill="none" xmlns="http://www.w3.org/2000/svg">
<path d="M113.922 36.8359C110.957 29.8184 106.659 23.4428 101.266 18.0625C95.8853 12.6692 89.5097 8.37103 82.4922 5.40625C75.2017 2.32129 67.4761 0.765625 59.5 0.765625C51.5239 0.765625 43.7983 2.32129 36.5078 5.40625C29.4903 8.37103 23.1147 12.6692 17.7344 18.0625C12.3411 23.4428 8.04291 29.8184 5.07812 36.8359C1.99316 44.1265 0.4375 51.8521 0.4375 59.8281C0.4375 77.3228 8.12353 93.8022 21.5181 105.061L21.7422 105.246C22.5068 105.878 23.4692 106.234 24.458 106.234H94.5552C95.5439 106.234 96.5063 105.878 97.271 105.246L97.4951 105.061C110.876 93.8022 118.562 77.3228 118.562 59.8281C118.562 51.8521 116.994 44.1265 113.922 36.8359ZM55.5449 16.5859C55.5449 16.0059 56.0195 15.5312 56.5996 15.5312H62.4004C62.9805 15.5312 63.4551 16.0059 63.4551 16.5859V27.1328C63.4551 27.7129 62.9805 28.1875 62.4004 28.1875H56.5996C56.0195 28.1875 55.5449 27.7129 55.5449 27.1328V16.5859ZM27.5957 62.7285C27.5957 63.3086 27.1211 63.7832 26.541 63.7832H15.9941C15.4141 63.7832 14.9395 63.3086 14.9395 62.7285V56.9277C14.9395 56.3477 15.4141 55.873 15.9941 55.873H26.541C27.1211 55.873 27.5957 56.3477 27.5957 56.9277V62.7285ZM39.5532 35.7681L35.4531 39.8682C35.2549 40.0644 34.9872 40.1746 34.7083 40.1746C34.4293 40.1746 34.1616 40.0644 33.9634 39.8682L26.5015 32.4062C26.3052 32.208 26.1951 31.9403 26.1951 31.6614C26.1951 31.3824 26.3052 31.1147 26.5015 30.9165L30.6016 26.8164C31.0103 26.4077 31.6826 26.4077 32.0913 26.8164L39.5532 34.2783C39.9619 34.687 39.9619 35.3594 39.5532 35.7681ZM77.9307 46.7896L66.7905 57.9297C67.4497 60.395 66.8169 63.124 64.8789 65.062C64.1938 65.7484 63.38 66.293 62.4842 66.6646C61.5883 67.0361 60.628 67.2274 59.6582 67.2274C58.6884 67.2274 57.7281 67.0361 56.8322 66.6646C55.9364 66.293 55.1226 65.7484 54.4375 65.062C53.7511 64.3769 53.2065 63.5631 52.8349 62.6673C52.4634 61.7715 52.2721 60.8111 52.2721 59.8413C52.2721 58.8715 52.4634 57.9112 52.8349 57.0153C53.2065 56.1195 53.7511 55.3057 54.4375 54.6206C55.3529 53.7024 56.4945 53.0421 57.7468 52.7065C58.9992 52.3708 60.3179 52.3717 61.5698 52.709L72.71 41.5688C73.1187 41.1602 73.791 41.1602 74.1997 41.5688L77.9307 45.2998C78.3394 45.7085 78.3394 46.3677 77.9307 46.7896ZM83.5996 39.8813L79.4995 35.7813C79.3032 35.583 79.1931 35.3153 79.1931 35.0364C79.1931 34.7574 79.3032 34.4897 79.4995 34.2915L86.9614 26.8296C87.3701 26.4209 88.0425 26.4209 88.4512 26.8296L92.5513 30.9297C92.96 31.3384 92.96 32.0107 92.5513 32.4194L85.0894 39.8813C84.8911 40.0776 84.6234 40.1877 84.3445 40.1877C84.0655 40.1877 83.7978 40.0776 83.5996 39.8813ZM103.533 62.7285C103.533 63.3086 103.059 63.7832 102.479 63.7832H91.9316C91.3516 63.7832 90.877 63.3086 90.877 62.7285V56.9277C90.877 56.3477 91.3516 55.873 91.9316 55.873H102.479C103.059 55.873 103.533 56.3477 103.533 56.9277V62.7285Z" fill="black"/>
</svg>
