<svg width="102" height="131" viewBox="0 0 102 131" fill="none" xmlns="http://www.w3.org/2000/svg">
<path d="M58.2857 109.167H65.5714V94.6111H58.2857C52.2143 94.6111 47.0536 92.4884 42.8036 88.2431C38.5536 83.9977 36.4286 78.8426 36.4286 72.7778V65.5H21.8571V72.7778C21.8571 82.8454 25.4101 91.4283 32.5161 98.5266C39.6221 105.625 48.212 109.172 58.2857 109.167ZM51 131C36.7929 131 24.7423 126.058 14.8483 116.175C4.95429 106.292 0.00485714 94.2521 0 80.0556C0 70.7157 1.54943 61.3153 4.64829 51.8542C7.74714 42.3931 11.7543 33.8126 16.6697 26.1127C21.5851 18.4128 27.0786 12.1345 33.15 7.27778C39.2214 2.42108 45.1714 -0.00484459 51 7.26325e-06C56.95 7.26325e-06 62.9316 2.42593 68.9447 7.27778C74.9578 12.1296 80.4221 18.4079 85.3376 26.1127C90.253 33.8174 94.2601 42.3979 97.359 51.8542C100.458 61.3104 102.005 70.7109 102 80.0556C102 94.2472 97.053 106.287 87.159 116.175C77.265 126.063 65.212 131.005 51 131Z" fill="black"/>
</svg>
