<svg width="135" height="108" viewBox="0 0 135 108" fill="none" xmlns="http://www.w3.org/2000/svg">
<path d="M106.312 74.2501H28.7719C27.8437 74.2501 27.0844 75.0095 27.0844 75.9376L27.0633 86.0626C27.0633 86.9907 27.8227 87.7501 28.7508 87.7501H106.312C107.241 87.7501 108 86.9907 108 86.0626V75.9376C108 75.0095 107.241 74.2501 106.312 74.2501ZM106.312 94.5001H28.7086C27.7805 94.5001 27.0211 95.2595 27.0211 96.1876L27 106.313C27 107.241 27.7594 108 28.6875 108H106.312C107.241 108 108 107.241 108 106.313V96.1876C108 95.2595 107.241 94.5001 106.312 94.5001ZM106.312 54.0001H28.8141C27.8859 54.0001 27.1266 54.7595 27.1266 55.6876L27.1055 65.8126C27.1055 66.7407 27.8648 67.5001 28.793 67.5001H106.312C107.241 67.5001 108 66.7407 108 65.8126V55.6876C108 54.7595 107.241 54.0001 106.312 54.0001ZM128.777 24.6798L71.3812 0.78058C70.1476 0.268801 68.8251 0.00537109 67.4895 0.00537109C66.1538 0.00537109 64.8313 0.268801 63.5977 0.78058L6.22266 24.6798C2.46797 26.2618 0 29.9321 0 34.0243V106.313C0 107.241 0.759375 108 1.6875 108H18.5625C19.4906 108 20.25 107.241 20.25 106.313V54.0001C20.25 50.2876 23.3297 47.2501 27.1266 47.2501H107.873C111.67 47.2501 114.75 50.2876 114.75 54.0001V106.313C114.75 107.241 115.509 108 116.438 108H133.312C134.241 108 135 107.241 135 106.313V34.0243C135 29.9321 132.532 26.2618 128.777 24.6798Z" fill="black"/>
</svg>
